<?xml version="1.0" encoding="UTF-8"?>
<svg version="1.1" xmlns="http://www.w3.org/2000/svg" width="100" height="100">
<path d="M0 0 C1 1 1 1 1.09765625 4.37890625 C1.09098369 5.77347077 1.07902532 7.16801743 1.0625 8.5625 C1.05798828 9.27341797 1.05347656 9.98433594 1.04882812 10.71679688 C1.03700864 12.47790013 1.01907263 14.23896036 1 16 C-0.65 16 -2.3 16 -4 16 C-4 12.04 -4 8.08 -4 4 C-3.34 4 -2.68 4 -2 4 C-1.67 3.34 -1.34 2.68 -1 2 C-1.99 2.33 -2.98 2.66 -4 3 C-4 7.62 -4 12.24 -4 17 C-2.68 17.33 -1.36 17.66 0 18 C1.84880496 16.15119504 1.34613282 13.11435121 1.5 10.625 C1.71580047 7.14907092 1.8975492 4.3073524 3 1 C13.88222529 -1.0291011 24.212521 -0.90811597 33.70581055 5.36401367 C41.32121109 11.6364624 44.78560792 17.51521394 45.89892578 27.26464844 C46.8506528 39.54554207 46.54055541 51.88883406 45.99609375 64.18359375 C45.94792007 65.29757538 45.8997464 66.41155701 45.85011292 67.55929565 C45.78670212 68.59603424 45.72329132 69.63277283 45.65795898 70.70092773 C45.60429672 71.60656967 45.55063446 72.51221161 45.49534607 73.44529724 C44.75071336 77.28567338 43.37988137 80.050741 40.11705017 82.29533386 C37.67917065 83.10678896 35.69686018 83.26067212 33.12719727 83.2746582 C32.162621 83.28419022 31.19804474 83.29372223 30.20423889 83.30354309 C29.16875412 83.30263168 28.13326935 83.30172028 27.06640625 83.30078125 C25.99631821 83.30506638 24.92623016 83.3093515 23.82371521 83.31376648 C21.5617646 83.31950671 19.29979553 83.32001231 17.0378418 83.31567383 C13.57894364 83.31251502 10.12090172 83.33597366 6.66210938 83.36132812 C4.46354275 83.36360126 2.26497382 83.36430455 0.06640625 83.36328125 C-0.96705429 83.372491 -2.00051483 83.38170074 -3.06529236 83.39118958 C-12.14911688 83.33272148 -12.14911688 83.33272148 -16 80 C-19.23117052 76.57509611 -19.38283928 74.03595305 -19.40405273 69.39892578 C-19.41434761 68.41764206 -19.41434761 68.41764206 -19.42485046 67.41653442 C-19.44311443 65.25923806 -19.43928123 63.10266942 -19.43359375 60.9453125 C-19.4381565 59.44082402 -19.44346236 57.93633762 -19.44947815 56.43185425 C-19.45840896 53.27951591 -19.45598749 50.12743089 -19.44604492 46.97509766 C-19.43456796 42.94434634 -19.45474629 38.91447276 -19.48396206 34.88383675 C-19.502352 31.77646366 -19.5020259 28.66929971 -19.49632454 25.56188583 C-19.49617159 24.07639207 -19.50219373 22.59088388 -19.51461601 21.10544205 C-19.52957455 19.02303114 -19.51881569 16.9422256 -19.50170898 14.85986328 C-19.50154282 13.67723907 -19.50137665 12.49461487 -19.50120544 11.27615356 C-18.89365282 7.30485652 -17.48813676 5.11794768 -15 2 C-12.8515625 0.9765625 -12.8515625 0.9765625 -10.625 0.625 C-9.84382813 0.49738281 -9.06265625 0.36976562 -8.2578125 0.23828125 C-5.47123714 -0.05580369 -2.79691259 -0.20976844 0 0 Z M-13.71154785 6.09655762 C-16.43503611 9.55194611 -16.62314695 11.10859466 -16.61523438 15.45507812 C-16.62453979 16.73991089 -16.63384521 18.02474365 -16.64343262 19.34851074 C-16.62784528 20.74276839 -16.61126019 22.13701518 -16.59375 23.53125 C-16.59203769 24.96944071 -16.59210581 26.40763455 -16.59387207 27.8458252 C-16.59222113 30.85536694 -16.5735667 33.8641617 -16.54199219 36.87353516 C-16.50231432 40.72381442 -16.49794813 44.57311617 -16.50545502 48.4235611 C-16.50853015 51.39195653 -16.4963851 54.36013376 -16.47932434 57.32847595 C-16.47231204 58.74778372 -16.46916766 60.16711621 -16.47001648 61.58644104 C-16.46821128 63.57267069 -16.44451823 65.5588437 -16.41992188 67.54492188 C-16.41150269 68.67345581 -16.4030835 69.80198975 -16.39440918 70.96472168 C-15.95031943 74.38232973 -15.09370459 76.27890711 -13 79 C-10.17688481 79.9410384 -8.35437287 80.1465339 -5.42431641 80.19287109 C-4.03740097 80.21696548 -4.03740097 80.21696548 -2.62246704 80.24154663 C1.59575579 80.28607726 5.81382372 80.32704287 10.03222656 80.35009766 C12.25726773 80.36667334 14.48225532 80.3939843 16.70703125 80.43212891 C19.91694729 80.48686502 23.1256178 80.50876502 26.3359375 80.5234375 C27.82521255 80.55744156 27.82521255 80.55744156 29.34457397 80.59213257 C33.68775399 80.57883573 36.32367852 80.38926 40.13598633 78.19506836 C42.97396185 73.33055157 42.61926948 68.88685249 42.48828125 63.35546875 C42.47766914 61.66808342 42.47766914 61.66808342 42.46684265 59.9466095 C42.43889144 56.35955851 42.37614717 52.77407788 42.3125 49.1875 C42.28741827 46.75327778 42.26460489 44.31903105 42.24414062 41.88476562 C42.18906226 35.9226428 42.10542705 29.9614336 42 24 C41.11957031 23.97421875 40.23914063 23.9484375 39.33203125 23.921875 C38.17058594 23.86515625 37.00914063 23.8084375 35.8125 23.75 C34.66394531 23.70359375 33.51539063 23.6571875 32.33203125 23.609375 C28.48151307 22.90517707 26.7793554 21.70313907 24 19 C21.83463826 14.66927651 22.32272751 8.70260087 22 4 C16.06 4 10.12 4 4 4 C3.71084731 8.89118777 3.71084731 8.89118777 3.43188477 13.78295898 C3.11111111 18.88888889 3.11111111 18.88888889 2 20 C-0.33297433 20.04092937 -2.66705225 20.04241723 -5 20 C-6.4807848 17.0384304 -6.35314037 14.16493705 -6.5625 10.875 C-6.64628906 9.59367187 -6.73007812 8.31234375 -6.81640625 6.9921875 C-6.87699219 6.00476563 -6.93757813 5.01734375 -7 4 C-11.0438533 3.59221361 -11.0438533 3.59221361 -13.71154785 6.09655762 Z M24 6 C23.43887238 12.84219732 23.43887238 12.84219732 25.875 19.0625 C29.09913295 22.00215063 30.85477254 22.11724651 35.125 22.0625 C36.03507812 22.05347656 36.94515625 22.04445313 37.8828125 22.03515625 C38.58148438 22.02355469 39.28015625 22.01195313 40 22 C35.31645873 16.35573231 30.3792354 10.9941954 25 6 C24.67 6 24.34 6 24 6 Z " fill="#000000" transform="translate(37,10)"/>
<path d="M0 0 C0.66 0 1.32 0 2 0 C1.67599213 0.70857651 1.35198425 1.41715302 1.01815796 2.14720154 C-0.06363287 5.1782943 -0.26536579 7.43780734 -0.29052734 10.64477539 C-0.30328705 11.75264908 -0.31604675 12.86052277 -0.32919312 14.00196838 C-0.33141876 15.18854538 -0.33364441 16.37512238 -0.3359375 17.59765625 C-0.3425943 18.82407333 -0.3492511 20.05049042 -0.35610962 21.31407166 C-0.36622467 23.90378318 -0.37092699 26.4935207 -0.37060547 29.08325195 C-0.37498772 33.0513774 -0.41134697 37.01839873 -0.44921875 40.98632812 C-0.45508519 43.50260036 -0.45905574 46.01887788 -0.4609375 48.53515625 C-0.47530853 49.72375748 -0.48967957 50.9123587 -0.50448608 52.13697815 C-0.49833282 53.24169968 -0.49217957 54.3464212 -0.48583984 55.48461914 C-0.48868988 56.45548965 -0.49153992 57.42636017 -0.49447632 58.426651 C0.14868114 61.77376501 1.31586283 62.95341252 4 65 C6.9815794 65.38564613 9.58487679 65.5380112 12.5625 65.49609375 C13.39080322 65.49754898 14.21910645 65.49900421 15.07250977 65.50050354 C16.82083662 65.49884621 18.56917832 65.48730341 20.31738281 65.46655273 C22.99086586 65.43759892 25.6623651 65.44594616 28.3359375 65.45898438 C30.03646795 65.45274656 31.73699216 65.44435528 33.4375 65.43359375 C34.23551025 65.43652939 35.03352051 65.43946503 35.85571289 65.44248962 C38.98215487 65.38944304 41.59800424 65.16806158 44.49707031 63.95605469 C46.79653624 60.96331248 46.60325829 57.89496225 46.609375 54.26953125 C46.62591125 53.51911057 46.64244751 52.76868988 46.65948486 51.99552917 C46.70803052 49.60110344 46.72934885 47.20731298 46.75 44.8125 C46.77815443 43.18811897 46.80808112 41.56376761 46.83984375 39.93945312 C46.91379039 35.95968773 46.96332417 31.98027633 47 28 C47.66 28 48.32 28 49 28 C49.07424001 32.91126203 49.12864411 37.82219634 49.16479492 42.73388672 C49.17986754 44.40419201 49.2003292 46.07445781 49.22631836 47.74462891 C49.26276973 50.14756013 49.27974131 52.54996744 49.29296875 54.953125 C49.30845261 55.69806213 49.32393646 56.44299927 49.33988953 57.21051025 C49.34091517 60.38087422 49.2013968 62.63068016 47.66918945 65.44042969 C43.89714068 68.96476018 38.93423446 68.16161365 34.09765625 68.16796875 C33.22354599 68.17129715 32.34943573 68.17462555 31.44883728 68.17805481 C29.60041836 68.18311649 27.7519903 68.18546337 25.90356445 68.18530273 C23.0768325 68.18748892 20.25049102 68.2056517 17.42382812 68.22460938 C15.6276055 68.22754351 13.83138102 68.22952817 12.03515625 68.23046875 C10.76781395 68.24124702 10.76781395 68.24124702 9.47486877 68.25224304 C8.6840239 68.24916641 7.89317902 68.24608978 7.07836914 68.24291992 C6.3857045 68.24434494 5.69303986 68.24576996 4.97938538 68.24723816 C2.55295246 67.94416084 1.04329182 67.34917379 -1 66 C-3.19980013 62.84559633 -3.25740822 60.06439299 -3.2746582 56.28515625 C-3.28419022 55.13716553 -3.29372223 53.9891748 -3.30354309 52.80639648 C-3.30263168 51.57091064 -3.30172028 50.3354248 -3.30078125 49.0625 C-3.30506638 47.79027588 -3.3093515 46.51805176 -3.31376648 45.20727539 C-3.31950985 42.51727482 -3.32094503 39.82765798 -3.31567383 37.13769531 C-3.30987477 33.69427479 -3.32682511 30.2513914 -3.3500185 26.80805969 C-3.36830727 23.51787708 -3.36457048 20.2277243 -3.36328125 16.9375 C-3.372491 15.70201416 -3.38170074 14.46652832 -3.39118958 13.19360352 C-3.38496078 12.04561279 -3.37873199 10.89762207 -3.37231445 9.71484375 C-3.37294388 8.70542725 -3.3735733 7.69601074 -3.3742218 6.65600586 C-2.94334573 3.59790136 -2.14229742 2.19725743 0 0 Z " fill="#000000" transform="translate(27,19)"/>
<path d="M0 0 C14.19 0 28.38 0 43 0 C43 0.66 43 1.32 43 2 C28.81 2 14.62 2 0 2 C0 1.34 0 0.68 0 0 Z " fill="#000000" transform="translate(29,65)"/>
<path d="M0 0 C13.86 0 27.72 0 42 0 C42 0.66 42 1.32 42 2 C28.14 2 14.28 2 0 2 C0 1.34 0 0.68 0 0 Z " fill="#000000" transform="translate(29,58)"/>
<path d="M0 0 C8.58 0 17.16 0 26 0 C26 0.66 26 1.32 26 2 C17.42 2 8.84 2 0 2 C0 1.34 0 0.68 0 0 Z " fill="#000000" transform="translate(29,72)"/>
<path d="M0 0 C8.25 0 16.5 0 25 0 C25 0.66 25 1.32 25 2 C16.75 2 8.5 2 0 2 C0 1.34 0 0.68 0 0 Z " fill="#000000" transform="translate(29,51)"/>
<path d="M0 0 C4.95 0 9.9 0 15 0 C15 0.66 15 1.32 15 2 C10.05 2 5.1 2 0 2 C0 1.34 0 0.68 0 0 Z " fill="#000000" transform="translate(56,72)"/>
</svg>
